<svg xmlns="http://www.w3.org/2000/svg" viewBox="0 0 400 500" width="800" height="1000">
<defs>
<linearGradient id="shade" x1="0" x2="1" y1="0" y2="0">
<stop offset="0" stop-color="#fff" stop-opacity="0.16"/>
<stop offset="0.5" stop-color="#fff" stop-opacity="0"/>
<stop offset="1" stop-color="#000" stop-opacity="0.12"/>
</linearGradient>
</defs>
<rect width="400" height="500" fill="#ffffff"/>
<ellipse cx="200" cy="472" rx="130" ry="10" fill="#000" opacity="0.06"/>
<path d="M128 60 L272 60 L288 452 L214 452 L200 168 L186 452 L112 452 Z" fill="#f4f4f2" stroke="#a3a3a3" stroke-width="3" stroke-linejoin="round"/><path d="M128 60 L272 60 L288 452 L214 452 L200 168 L186 452 L112 452 Z" fill="url(#shade)"/><rect x="128" y="60" width="144" height="24" fill="#e5e5e3" stroke="#a3a3a3" stroke-width="3"/><path d="M200 84 L200 168 M150 84 Q150 120 128 128 M250 84 Q250 120 272 128" fill="none" stroke="#a3a3a3" stroke-width="2" stroke-linecap="round" stroke-linejoin="round"/><rect x="146" y="58" width="8" height="28" fill="#a3a3a3" opacity="0.5"/><rect x="196" y="58" width="8" height="28" fill="#a3a3a3" opacity="0.5"/><rect x="246" y="58" width="8" height="28" fill="#a3a3a3" opacity="0.5"/>
</svg>
